<mxfile host="app.diagrams.net" agent="Mozilla/5.0 (Windows NT 10.0; Win64; x64) AppleWebKit/537.36 (KHTML, like Gecko) Chrome/135.0.0.0 Safari/537.36" version="26.2.12">
  <diagram name="ページ1" id="blJo8V8RZGlDzMt2KCXf">
    <mxGraphModel grid="1" page="1" gridSize="10" guides="1" tooltips="1" connect="1" arrows="1" fold="1" pageScale="1" pageWidth="827" pageHeight="1169" math="0" shadow="0">
      <root>
        <mxCell id="0" />
        <mxCell id="1" parent="0" />
        <mxCell id="ICABriZi5GorXYD_xj9T-27" value="ログイン保持" style="swimlane;childLayout=stackLayout;resizeParent=1;resizeParentMax=0;startSize=20;html=1;" vertex="1" parent="1">
          <mxGeometry x="60" y="357.5" width="580" height="602.5" as="geometry" />
        </mxCell>
        <mxCell id="ICABriZi5GorXYD_xj9T-30" value="クライアントプログラム" style="swimlane;startSize=20;html=1;" vertex="1" parent="ICABriZi5GorXYD_xj9T-27">
          <mxGeometry y="20" width="250" height="582.5" as="geometry" />
        </mxCell>
        <mxCell id="ICABriZi5GorXYD_xj9T-145" style="edgeStyle=orthogonalEdgeStyle;rounded=0;orthogonalLoop=1;jettySize=auto;html=1;exitX=0.5;exitY=1;exitDx=0;exitDy=0;entryX=0.5;entryY=0;entryDx=0;entryDy=0;" edge="1" parent="ICABriZi5GorXYD_xj9T-30" source="ICABriZi5GorXYD_xj9T-31" target="ICABriZi5GorXYD_xj9T-35">
          <mxGeometry relative="1" as="geometry" />
        </mxCell>
        <mxCell id="ICABriZi5GorXYD_xj9T-31" value="" style="ellipse;whiteSpace=wrap;html=1;aspect=fixed;fillColor=light-dark(#000000, #1a1a1a);fontColor=#333333;strokeColor=#666666;" vertex="1" parent="ICABriZi5GorXYD_xj9T-30">
          <mxGeometry x="110" y="30" width="20" height="20" as="geometry" />
        </mxCell>
        <mxCell id="ICABriZi5GorXYD_xj9T-35" value="&lt;div&gt;&lt;span style=&quot;background-color: transparent; color: light-dark(rgb(0, 0, 0), rgb(255, 255, 255));&quot;&gt;サーバに接続要求&lt;/span&gt;&lt;/div&gt;" style="rounded=0;whiteSpace=wrap;html=1;" vertex="1" parent="ICABriZi5GorXYD_xj9T-30">
          <mxGeometry x="60" y="90" width="120" height="30" as="geometry" />
        </mxCell>
        <mxCell id="ICABriZi5GorXYD_xj9T-36" style="edgeStyle=orthogonalEdgeStyle;rounded=0;orthogonalLoop=1;jettySize=auto;html=1;exitX=0.5;exitY=1;exitDx=0;exitDy=0;entryX=0.5;entryY=0;entryDx=0;entryDy=0;" edge="1" parent="ICABriZi5GorXYD_xj9T-30" source="ICABriZi5GorXYD_xj9T-38" target="ICABriZi5GorXYD_xj9T-43">
          <mxGeometry relative="1" as="geometry" />
        </mxCell>
        <mxCell id="ICABriZi5GorXYD_xj9T-37" value="「対局」へ" style="edgeLabel;html=1;align=center;verticalAlign=middle;resizable=0;points=[];" vertex="1" connectable="0" parent="ICABriZi5GorXYD_xj9T-36">
          <mxGeometry x="-0.2011" y="1" relative="1" as="geometry">
            <mxPoint as="offset" />
          </mxGeometry>
        </mxCell>
        <mxCell id="ICABriZi5GorXYD_xj9T-38" value="先手後手・プレイヤー名の受信" style="rounded=0;whiteSpace=wrap;html=1;" vertex="1" parent="ICABriZi5GorXYD_xj9T-30">
          <mxGeometry x="30" y="472.5" width="180" height="20" as="geometry" />
        </mxCell>
        <mxCell id="ICABriZi5GorXYD_xj9T-43" value="" style="ellipse;html=1;shape=endState;fillColor=#000000;strokeColor=#000000;" vertex="1" parent="ICABriZi5GorXYD_xj9T-30">
          <mxGeometry x="109" y="552.5" width="21" height="20" as="geometry" />
        </mxCell>
        <mxCell id="ICABriZi5GorXYD_xj9T-148" value="&lt;div&gt;&lt;span style=&quot;background-color: transparent; color: light-dark(rgb(0, 0, 0), rgb(255, 255, 255));&quot;&gt;プレイヤー名送信&lt;/span&gt;&lt;/div&gt;" style="rounded=0;whiteSpace=wrap;html=1;" vertex="1" parent="ICABriZi5GorXYD_xj9T-30">
          <mxGeometry x="59.5" y="177.5" width="120" height="30" as="geometry" />
        </mxCell>
        <mxCell id="ICABriZi5GorXYD_xj9T-44" value="サーバプログラム" style="swimlane;startSize=20;html=1;" vertex="1" parent="ICABriZi5GorXYD_xj9T-27">
          <mxGeometry x="250" y="20" width="330" height="582.5" as="geometry" />
        </mxCell>
        <mxCell id="ICABriZi5GorXYD_xj9T-46" value="接続許可" style="rounded=0;whiteSpace=wrap;html=1;" vertex="1" parent="ICABriZi5GorXYD_xj9T-44">
          <mxGeometry x="80" y="145" width="170" height="20" as="geometry" />
        </mxCell>
        <mxCell id="ICABriZi5GorXYD_xj9T-47" style="edgeStyle=orthogonalEdgeStyle;rounded=0;orthogonalLoop=1;jettySize=auto;html=1;exitX=0.5;exitY=1;exitDx=0;exitDy=0;entryX=0.5;entryY=0;entryDx=0;entryDy=0;" edge="1" parent="ICABriZi5GorXYD_xj9T-44" source="ICABriZi5GorXYD_xj9T-48" target="ICABriZi5GorXYD_xj9T-53">
          <mxGeometry relative="1" as="geometry" />
        </mxCell>
        <mxCell id="ICABriZi5GorXYD_xj9T-48" value="クライアント接続状態の確認" style="rounded=0;whiteSpace=wrap;html=1;" vertex="1" parent="ICABriZi5GorXYD_xj9T-44">
          <mxGeometry x="84" y="262.5" width="170" height="20" as="geometry" />
        </mxCell>
        <mxCell id="ICABriZi5GorXYD_xj9T-51" style="edgeStyle=orthogonalEdgeStyle;rounded=0;orthogonalLoop=1;jettySize=auto;html=1;exitX=0.5;exitY=1;exitDx=0;exitDy=0;" edge="1" parent="ICABriZi5GorXYD_xj9T-44" source="ICABriZi5GorXYD_xj9T-53" target="ICABriZi5GorXYD_xj9T-54">
          <mxGeometry relative="1" as="geometry" />
        </mxCell>
        <mxCell id="ICABriZi5GorXYD_xj9T-52" value="1台接続" style="edgeLabel;html=1;align=center;verticalAlign=middle;resizable=0;points=[];" vertex="1" connectable="0" parent="ICABriZi5GorXYD_xj9T-51">
          <mxGeometry x="0.0794" relative="1" as="geometry">
            <mxPoint as="offset" />
          </mxGeometry>
        </mxCell>
        <mxCell id="ICABriZi5GorXYD_xj9T-153" style="edgeStyle=orthogonalEdgeStyle;rounded=0;orthogonalLoop=1;jettySize=auto;html=1;exitX=0.5;exitY=1;exitDx=0;exitDy=0;" edge="1" parent="ICABriZi5GorXYD_xj9T-44" source="ICABriZi5GorXYD_xj9T-53">
          <mxGeometry relative="1" as="geometry">
            <mxPoint x="250" y="362.5" as="targetPoint" />
          </mxGeometry>
        </mxCell>
        <mxCell id="ICABriZi5GorXYD_xj9T-154" value="2台接続" style="edgeLabel;html=1;align=center;verticalAlign=middle;resizable=0;points=[];" vertex="1" connectable="0" parent="ICABriZi5GorXYD_xj9T-153">
          <mxGeometry x="0.1412" y="-4" relative="1" as="geometry">
            <mxPoint y="-4" as="offset" />
          </mxGeometry>
        </mxCell>
        <mxCell id="ICABriZi5GorXYD_xj9T-53" value="" style="rhombus;whiteSpace=wrap;html=1;" vertex="1" parent="ICABriZi5GorXYD_xj9T-44">
          <mxGeometry x="159" y="302.5" width="20" height="20" as="geometry" />
        </mxCell>
        <mxCell id="ICABriZi5GorXYD_xj9T-157" style="edgeStyle=orthogonalEdgeStyle;rounded=0;orthogonalLoop=1;jettySize=auto;html=1;exitX=0.5;exitY=1;exitDx=0;exitDy=0;" edge="1" parent="ICABriZi5GorXYD_xj9T-44" source="ICABriZi5GorXYD_xj9T-54" target="ICABriZi5GorXYD_xj9T-156">
          <mxGeometry relative="1" as="geometry" />
        </mxCell>
        <mxCell id="ICABriZi5GorXYD_xj9T-54" value="先手決定" style="rounded=0;whiteSpace=wrap;html=1;" vertex="1" parent="ICABriZi5GorXYD_xj9T-44">
          <mxGeometry x="9" y="362.5" width="101" height="20" as="geometry" />
        </mxCell>
        <mxCell id="ICABriZi5GorXYD_xj9T-152" style="edgeStyle=orthogonalEdgeStyle;rounded=0;orthogonalLoop=1;jettySize=auto;html=1;exitX=0.5;exitY=1;exitDx=0;exitDy=0;" edge="1" parent="ICABriZi5GorXYD_xj9T-44" source="ICABriZi5GorXYD_xj9T-151" target="ICABriZi5GorXYD_xj9T-48">
          <mxGeometry relative="1" as="geometry" />
        </mxCell>
        <mxCell id="ICABriZi5GorXYD_xj9T-151" value="プレイヤー名取得" style="rounded=0;whiteSpace=wrap;html=1;" vertex="1" parent="ICABriZi5GorXYD_xj9T-44">
          <mxGeometry x="84" y="222.5" width="170" height="20" as="geometry" />
        </mxCell>
        <mxCell id="ICABriZi5GorXYD_xj9T-158" style="edgeStyle=orthogonalEdgeStyle;rounded=0;orthogonalLoop=1;jettySize=auto;html=1;exitX=0.5;exitY=1;exitDx=0;exitDy=0;entryX=0.5;entryY=0;entryDx=0;entryDy=0;" edge="1" parent="ICABriZi5GorXYD_xj9T-44" source="ICABriZi5GorXYD_xj9T-155" target="ICABriZi5GorXYD_xj9T-156">
          <mxGeometry relative="1" as="geometry" />
        </mxCell>
        <mxCell id="ICABriZi5GorXYD_xj9T-155" value="後手決定" style="rounded=0;whiteSpace=wrap;html=1;" vertex="1" parent="ICABriZi5GorXYD_xj9T-44">
          <mxGeometry x="200" y="362.5" width="101" height="20" as="geometry" />
        </mxCell>
        <mxCell id="ICABriZi5GorXYD_xj9T-156" value="先手後手・プレイヤー名送信" style="rounded=0;whiteSpace=wrap;html=1;" vertex="1" parent="ICABriZi5GorXYD_xj9T-44">
          <mxGeometry x="80" y="422.5" width="170" height="20" as="geometry" />
        </mxCell>
        <mxCell id="ICABriZi5GorXYD_xj9T-146" style="edgeStyle=orthogonalEdgeStyle;rounded=0;orthogonalLoop=1;jettySize=auto;html=1;exitX=0.5;exitY=1;exitDx=0;exitDy=0;entryX=0;entryY=0.5;entryDx=0;entryDy=0;" edge="1" parent="ICABriZi5GorXYD_xj9T-27" source="ICABriZi5GorXYD_xj9T-35" target="ICABriZi5GorXYD_xj9T-46">
          <mxGeometry relative="1" as="geometry" />
        </mxCell>
        <mxCell id="ICABriZi5GorXYD_xj9T-149" style="edgeStyle=orthogonalEdgeStyle;rounded=0;orthogonalLoop=1;jettySize=auto;html=1;exitX=0.5;exitY=1;exitDx=0;exitDy=0;entryX=1;entryY=0.5;entryDx=0;entryDy=0;" edge="1" parent="ICABriZi5GorXYD_xj9T-27" source="ICABriZi5GorXYD_xj9T-46" target="ICABriZi5GorXYD_xj9T-148">
          <mxGeometry relative="1" as="geometry" />
        </mxCell>
        <mxCell id="ICABriZi5GorXYD_xj9T-150" style="edgeStyle=orthogonalEdgeStyle;rounded=0;orthogonalLoop=1;jettySize=auto;html=1;exitX=0.5;exitY=1;exitDx=0;exitDy=0;entryX=0;entryY=0.75;entryDx=0;entryDy=0;" edge="1" parent="ICABriZi5GorXYD_xj9T-27" source="ICABriZi5GorXYD_xj9T-148" target="ICABriZi5GorXYD_xj9T-151">
          <mxGeometry relative="1" as="geometry">
            <mxPoint x="290" y="292.5" as="targetPoint" />
          </mxGeometry>
        </mxCell>
        <mxCell id="ICABriZi5GorXYD_xj9T-159" style="edgeStyle=orthogonalEdgeStyle;rounded=0;orthogonalLoop=1;jettySize=auto;html=1;exitX=0.5;exitY=1;exitDx=0;exitDy=0;entryX=1;entryY=0.5;entryDx=0;entryDy=0;" edge="1" parent="ICABriZi5GorXYD_xj9T-27" source="ICABriZi5GorXYD_xj9T-156" target="ICABriZi5GorXYD_xj9T-38">
          <mxGeometry relative="1" as="geometry" />
        </mxCell>
        <mxCell id="ICABriZi5GorXYD_xj9T-60" value="石の設置場所受信" style="swimlane;childLayout=stackLayout;resizeParent=1;resizeParentMax=0;startSize=20;html=1;" vertex="1" parent="1">
          <mxGeometry x="680" y="20" width="570" height="440" as="geometry" />
        </mxCell>
        <mxCell id="ICABriZi5GorXYD_xj9T-61" value="クライアント1" style="swimlane;startSize=20;html=1;" vertex="1" parent="ICABriZi5GorXYD_xj9T-60">
          <mxGeometry y="20" width="160" height="420" as="geometry" />
        </mxCell>
        <mxCell id="TEwn-exQFDW3O153DHh5-3" style="edgeStyle=orthogonalEdgeStyle;rounded=0;orthogonalLoop=1;jettySize=auto;html=1;exitX=0.5;exitY=1;exitDx=0;exitDy=0;entryX=0.5;entryY=0;entryDx=0;entryDy=0;" edge="1" parent="ICABriZi5GorXYD_xj9T-61" source="TEwn-exQFDW3O153DHh5-1" target="TEwn-exQFDW3O153DHh5-2">
          <mxGeometry relative="1" as="geometry" />
        </mxCell>
        <mxCell id="TEwn-exQFDW3O153DHh5-1" value="" style="ellipse;whiteSpace=wrap;html=1;aspect=fixed;fillColor=light-dark(#000000, #1a1a1a);fontColor=#333333;strokeColor=#666666;" vertex="1" parent="ICABriZi5GorXYD_xj9T-61">
          <mxGeometry x="70" y="30" width="20" height="20" as="geometry" />
        </mxCell>
        <mxCell id="TEwn-exQFDW3O153DHh5-2" value="入力情報を送信" style="rounded=0;whiteSpace=wrap;html=1;" vertex="1" parent="ICABriZi5GorXYD_xj9T-61">
          <mxGeometry x="35" y="70" width="90" height="30" as="geometry" />
        </mxCell>
        <mxCell id="ICABriZi5GorXYD_xj9T-67" value="サーバ" style="swimlane;startSize=20;html=1;" vertex="1" parent="ICABriZi5GorXYD_xj9T-60">
          <mxGeometry x="160" y="20" width="240" height="420" as="geometry" />
        </mxCell>
        <mxCell id="TEwn-exQFDW3O153DHh5-10" style="edgeStyle=orthogonalEdgeStyle;rounded=0;orthogonalLoop=1;jettySize=auto;html=1;exitX=0.5;exitY=1;exitDx=0;exitDy=0;" edge="1" parent="ICABriZi5GorXYD_xj9T-67" source="ICABriZi5GorXYD_xj9T-113" target="ICABriZi5GorXYD_xj9T-115">
          <mxGeometry relative="1" as="geometry" />
        </mxCell>
        <mxCell id="ICABriZi5GorXYD_xj9T-113" value="クライアントの操作情報を受信" style="rounded=0;whiteSpace=wrap;html=1;" vertex="1" parent="ICABriZi5GorXYD_xj9T-67">
          <mxGeometry x="60" y="110" width="120" height="35" as="geometry" />
        </mxCell>
        <mxCell id="ICABriZi5GorXYD_xj9T-115" value="操作情報を相手へ&lt;br&gt;送信" style="rounded=0;whiteSpace=wrap;html=1;" vertex="1" parent="ICABriZi5GorXYD_xj9T-67">
          <mxGeometry x="60" y="160" width="120" height="35" as="geometry" />
        </mxCell>
        <mxCell id="ICABriZi5GorXYD_xj9T-109" value="クライアント2" style="swimlane;startSize=20;html=1;" vertex="1" parent="ICABriZi5GorXYD_xj9T-60">
          <mxGeometry x="400" y="20" width="170" height="420" as="geometry" />
        </mxCell>
        <mxCell id="ICABriZi5GorXYD_xj9T-111" value="相手の操作情報をクライアントへ送信" style="rounded=0;whiteSpace=wrap;html=1;" vertex="1" parent="ICABriZi5GorXYD_xj9T-109">
          <mxGeometry x="30" y="272.5" width="120" height="35" as="geometry" />
        </mxCell>
        <mxCell id="ICABriZi5GorXYD_xj9T-116" style="edgeStyle=orthogonalEdgeStyle;rounded=0;orthogonalLoop=1;jettySize=auto;html=1;exitX=0.5;exitY=1;exitDx=0;exitDy=0;entryX=0.5;entryY=0;entryDx=0;entryDy=0;" edge="1" parent="ICABriZi5GorXYD_xj9T-109" source="ICABriZi5GorXYD_xj9T-117" target="ICABriZi5GorXYD_xj9T-111">
          <mxGeometry relative="1" as="geometry" />
        </mxCell>
        <mxCell id="ICABriZi5GorXYD_xj9T-117" value="相手の操作情報受信" style="rounded=0;whiteSpace=wrap;html=1;" vertex="1" parent="ICABriZi5GorXYD_xj9T-109">
          <mxGeometry x="30" y="220" width="120" height="20" as="geometry" />
        </mxCell>
        <mxCell id="ICABriZi5GorXYD_xj9T-91" style="edgeStyle=orthogonalEdgeStyle;rounded=0;orthogonalLoop=1;jettySize=auto;html=1;exitX=0.5;exitY=1;exitDx=0;exitDy=0;entryX=0.5;entryY=0;entryDx=0;entryDy=0;" edge="1" parent="ICABriZi5GorXYD_xj9T-109" target="ICABriZi5GorXYD_xj9T-100">
          <mxGeometry relative="1" as="geometry">
            <mxPoint x="90" y="357.5" as="targetPoint" />
            <mxPoint x="90.5" y="307.5" as="sourcePoint" />
          </mxGeometry>
        </mxCell>
        <mxCell id="ICABriZi5GorXYD_xj9T-92" value="次の「石の設置場所受信へ」" style="edgeLabel;html=1;align=center;verticalAlign=middle;resizable=0;points=[];" connectable="0" vertex="1" parent="ICABriZi5GorXYD_xj9T-91">
          <mxGeometry x="0.4104" y="1" relative="1" as="geometry">
            <mxPoint as="offset" />
          </mxGeometry>
        </mxCell>
        <mxCell id="ICABriZi5GorXYD_xj9T-100" value="" style="ellipse;html=1;shape=endState;fillColor=#000000;strokeColor=#000000;" vertex="1" parent="ICABriZi5GorXYD_xj9T-109">
          <mxGeometry x="79.5" y="392.5" width="21" height="20" as="geometry" />
        </mxCell>
        <mxCell id="TEwn-exQFDW3O153DHh5-5" style="edgeStyle=orthogonalEdgeStyle;rounded=0;orthogonalLoop=1;jettySize=auto;html=1;exitX=0.5;exitY=1;exitDx=0;exitDy=0;entryX=0;entryY=0.5;entryDx=0;entryDy=0;" edge="1" parent="ICABriZi5GorXYD_xj9T-60" source="TEwn-exQFDW3O153DHh5-2" target="ICABriZi5GorXYD_xj9T-113">
          <mxGeometry relative="1" as="geometry">
            <mxPoint x="260" y="160" as="targetPoint" />
          </mxGeometry>
        </mxCell>
        <mxCell id="TEwn-exQFDW3O153DHh5-8" style="edgeStyle=orthogonalEdgeStyle;rounded=0;orthogonalLoop=1;jettySize=auto;html=1;exitX=0.5;exitY=1;exitDx=0;exitDy=0;entryX=0;entryY=0.75;entryDx=0;entryDy=0;" edge="1" parent="ICABriZi5GorXYD_xj9T-60" source="ICABriZi5GorXYD_xj9T-115" target="ICABriZi5GorXYD_xj9T-117">
          <mxGeometry relative="1" as="geometry" />
        </mxCell>
        <mxCell id="ICABriZi5GorXYD_xj9T-128" value="対局を終了する" style="swimlane;childLayout=stackLayout;resizeParent=1;resizeParentMax=0;startSize=20;html=1;" vertex="1" parent="1">
          <mxGeometry x="750" y="650" width="350" height="290" as="geometry" />
        </mxCell>
        <mxCell id="ICABriZi5GorXYD_xj9T-131" value="クライアントプログラム" style="swimlane;startSize=20;html=1;" vertex="1" parent="ICABriZi5GorXYD_xj9T-128">
          <mxGeometry y="20" width="190" height="270" as="geometry" />
        </mxCell>
        <mxCell id="ICABriZi5GorXYD_xj9T-132" value="対局終了を通知する" style="rounded=0;whiteSpace=wrap;html=1;" vertex="1" parent="ICABriZi5GorXYD_xj9T-131">
          <mxGeometry x="37.5" y="80" width="115" height="25" as="geometry" />
        </mxCell>
        <mxCell id="ICABriZi5GorXYD_xj9T-139" style="edgeStyle=orthogonalEdgeStyle;rounded=0;orthogonalLoop=1;jettySize=auto;html=1;exitX=0.5;exitY=1;exitDx=0;exitDy=0;entryX=0.5;entryY=0;entryDx=0;entryDy=0;" edge="1" parent="ICABriZi5GorXYD_xj9T-131" source="ICABriZi5GorXYD_xj9T-140" target="ICABriZi5GorXYD_xj9T-132">
          <mxGeometry relative="1" as="geometry" />
        </mxCell>
        <mxCell id="ICABriZi5GorXYD_xj9T-140" value="" style="ellipse;whiteSpace=wrap;html=1;aspect=fixed;fillColor=light-dark(#000000, #1a1a1a);fontColor=#333333;strokeColor=#666666;" vertex="1" parent="ICABriZi5GorXYD_xj9T-131">
          <mxGeometry x="85" y="30" width="20" height="20" as="geometry" />
        </mxCell>
        <mxCell id="TEwn-exQFDW3O153DHh5-13" style="edgeStyle=orthogonalEdgeStyle;rounded=0;orthogonalLoop=1;jettySize=auto;html=1;exitX=0.5;exitY=1;exitDx=0;exitDy=0;entryX=0;entryY=0.5;entryDx=0;entryDy=0;" edge="1" parent="ICABriZi5GorXYD_xj9T-128" source="ICABriZi5GorXYD_xj9T-132" target="TEwn-exQFDW3O153DHh5-14">
          <mxGeometry relative="1" as="geometry">
            <mxPoint x="320" y="170" as="targetPoint" />
          </mxGeometry>
        </mxCell>
        <mxCell id="ICABriZi5GorXYD_xj9T-142" value="サーバ" style="swimlane;startSize=20;html=1;" vertex="1" parent="ICABriZi5GorXYD_xj9T-128">
          <mxGeometry x="190" y="20" width="160" height="270" as="geometry" />
        </mxCell>
        <mxCell id="TEwn-exQFDW3O153DHh5-34" style="edgeStyle=orthogonalEdgeStyle;rounded=0;orthogonalLoop=1;jettySize=auto;html=1;exitX=0.5;exitY=1;exitDx=0;exitDy=0;entryX=0.5;entryY=0;entryDx=0;entryDy=0;" edge="1" parent="ICABriZi5GorXYD_xj9T-142" source="TEwn-exQFDW3O153DHh5-14" target="TEwn-exQFDW3O153DHh5-32">
          <mxGeometry relative="1" as="geometry" />
        </mxCell>
        <mxCell id="TEwn-exQFDW3O153DHh5-14" value="終了通知を受信する" style="rounded=0;whiteSpace=wrap;html=1;" vertex="1" parent="ICABriZi5GorXYD_xj9T-142">
          <mxGeometry x="30" y="115" width="115" height="25" as="geometry" />
        </mxCell>
        <mxCell id="ICABriZi5GorXYD_xj9T-138" value="" style="ellipse;html=1;shape=endState;fillColor=#000000;strokeColor=#000000;" vertex="1" parent="ICABriZi5GorXYD_xj9T-142">
          <mxGeometry x="77" y="230.00000000000006" width="21" height="20" as="geometry" />
        </mxCell>
        <mxCell id="TEwn-exQFDW3O153DHh5-35" style="edgeStyle=orthogonalEdgeStyle;rounded=0;orthogonalLoop=1;jettySize=auto;html=1;exitX=0.5;exitY=1;exitDx=0;exitDy=0;entryX=0.5;entryY=0;entryDx=0;entryDy=0;" edge="1" parent="ICABriZi5GorXYD_xj9T-142" source="TEwn-exQFDW3O153DHh5-32" target="ICABriZi5GorXYD_xj9T-138">
          <mxGeometry relative="1" as="geometry" />
        </mxCell>
        <mxCell id="TEwn-exQFDW3O153DHh5-36" value="終了" style="edgeLabel;html=1;align=center;verticalAlign=middle;resizable=0;points=[];" connectable="0" vertex="1" parent="TEwn-exQFDW3O153DHh5-35">
          <mxGeometry x="-0.0649" y="-3" relative="1" as="geometry">
            <mxPoint as="offset" />
          </mxGeometry>
        </mxCell>
        <mxCell id="TEwn-exQFDW3O153DHh5-32" value="接続を切断する" style="rounded=0;whiteSpace=wrap;html=1;" vertex="1" parent="ICABriZi5GorXYD_xj9T-142">
          <mxGeometry x="30" y="160" width="115" height="25" as="geometry" />
        </mxCell>
      </root>
    </mxGraphModel>
  </diagram>
</mxfile>
